<svg width="135" height="34" viewBox="0 0 135 34" fill="none" xmlns="http://www.w3.org/2000/svg">
<path d="M53.5488 30H48.1172V18.9082H37.9395V30H32.4902V4.30078H37.9395V14.373H48.1172V4.30078H53.5488V30ZM63.9023 20.1387C63.9023 22.084 64.2188 23.5547 64.8516 24.5508C65.4961 25.5469 66.5391 26.0449 67.9805 26.0449C69.4102 26.0449 70.4355 25.5527 71.0566 24.5684C71.6895 23.5723 72.0059 22.0957 72.0059 20.1387C72.0059 18.1934 71.6895 16.7344 71.0566 15.7617C70.4238 14.7891 69.3867 14.3027 67.9453 14.3027C66.5156 14.3027 65.4844 14.7891 64.8516 15.7617C64.2188 16.7227 63.9023 18.1816 63.9023 20.1387ZM77.4902 20.1387C77.4902 23.3379 76.6465 25.8398 74.959 27.6445C73.2715 29.4492 70.9219 30.3516 67.9102 30.3516C66.0234 30.3516 64.3594 29.9414 62.918 29.1211C61.4766 28.2891 60.3691 27.0996 59.5957 25.5527C58.8223 24.0059 58.4355 22.2012 58.4355 20.1387C58.4355 16.9277 59.2734 14.4316 60.9492 12.6504C62.625 10.8691 64.9805 9.97852 68.0156 9.97852C69.9023 9.97852 71.5664 10.3887 73.0078 11.209C74.4492 12.0293 75.5566 13.207 76.3301 14.7422C77.1035 16.2773 77.4902 18.0762 77.4902 20.1387ZM99.5156 30H94.1543V18.5215C94.1543 17.1035 93.9141 16.043 93.4336 15.3398C92.9648 14.625 92.2207 14.2676 91.2012 14.2676C89.8301 14.2676 88.834 14.7715 88.2129 15.7793C87.5918 16.7871 87.2812 18.4453 87.2812 20.7539V30H81.9199V10.3477H86.0156L86.7363 12.8613H87.0352C87.5625 11.959 88.3242 11.2559 89.3203 10.752C90.3164 10.2363 91.459 9.97852 92.748 9.97852C95.6895 9.97852 97.6816 10.9395 98.7246 12.8613H99.1992C99.7266 11.9473 100.5 11.2383 101.52 10.7344C102.551 10.2305 103.711 9.97852 105 9.97852C107.227 9.97852 108.908 10.5527 110.045 11.7012C111.193 12.8379 111.768 14.666 111.768 17.1855V30H106.389V18.5215C106.389 17.1035 106.148 16.043 105.668 15.3398C105.199 14.625 104.455 14.2676 103.436 14.2676C102.123 14.2676 101.139 14.7363 100.482 15.6738C99.8379 16.6113 99.5156 18.0996 99.5156 20.1387V30ZM125.426 13.793C124.289 13.793 123.398 14.1562 122.754 14.8828C122.109 15.5977 121.74 16.6172 121.646 17.9414H129.17C129.146 16.6172 128.801 15.5977 128.133 14.8828C127.465 14.1562 126.562 13.793 125.426 13.793ZM126.182 30.3516C123.018 30.3516 120.545 29.4785 118.764 27.7324C116.982 25.9863 116.092 23.5137 116.092 20.3145C116.092 17.0215 116.912 14.4785 118.553 12.6855C120.205 10.8809 122.484 9.97852 125.391 9.97852C128.168 9.97852 130.33 10.7695 131.877 12.3516C133.424 13.9336 134.197 16.1191 134.197 18.9082V21.5098H121.523C121.582 23.0332 122.033 24.2227 122.877 25.0781C123.721 25.9336 124.904 26.3613 126.428 26.3613C127.611 26.3613 128.73 26.2383 129.785 25.9922C130.84 25.7461 131.941 25.3535 133.09 24.8145V28.9629C132.152 29.4316 131.15 29.7773 130.084 30C129.018 30.2344 127.717 30.3516 126.182 30.3516Z" fill="#3B82F6"/>
<path fill-rule="evenodd" clip-rule="evenodd" d="M13.2085 29.7498C20.4946 29.7451 26.3996 24.0386 26.3996 16.9999C26.3996 9.96114 20.4946 4.25458 13.2085 4.25C18.371 6.3338 21.9987 11.2576 21.9987 16.9999C21.9987 22.7421 18.371 27.6659 13.2085 29.7498Z" fill="#3855B3" fill-opacity="0.16"/>
<path d="M0 8.25024C0 6.0411 1.79086 4.25024 4 4.25024H7.70017C14.9903 4.25024 20.9 9.95856 20.9 17.0001C20.9 24.0417 14.9903 29.75 7.70017 29.75H4C1.79086 29.75 0 27.9591 0 25.75V8.25024Z" fill="#3B82F6"/>
</svg>
